<mxfile host="Electron" agent="Mozilla/5.0 (Windows NT 10.0; Win64; x64) AppleWebKit/537.36 (KHTML, like Gecko) draw.io/25.0.1 Chrome/128.0.6613.186 Electron/32.2.6 Safari/537.36" version="25.0.1">
  <diagram name="Page-1" id="GTvo4YVXuUUymom_pVjh">
    <mxGraphModel dx="1036" dy="606" grid="1" gridSize="10" guides="1" tooltips="1" connect="1" arrows="1" fold="1" page="1" pageScale="1" pageWidth="850" pageHeight="1100" math="0" shadow="0">
      <root>
        <mxCell id="0" />
        <mxCell id="1" parent="0" />
        <mxCell id="jN14fflJWIRep8Q9NHBz-1" value="Prijavljivanje na sistem i povratak&amp;nbsp;šifre" style="ellipse;whiteSpace=wrap;html=1;fontSize=14;" parent="1" vertex="1">
          <mxGeometry x="10" y="270" width="430" height="80" as="geometry" />
        </mxCell>
        <mxCell id="jN14fflJWIRep8Q9NHBz-2" value="Povratak zaboravljene&amp;nbsp;šifre" style="ellipse;whiteSpace=wrap;html=1;fontSize=14;" parent="1" vertex="1">
          <mxGeometry x="510" y="160" width="310" height="80" as="geometry" />
        </mxCell>
        <mxCell id="jN14fflJWIRep8Q9NHBz-3" value="Prijavljivanje na sistem" style="ellipse;whiteSpace=wrap;html=1;fontSize=14;" parent="1" vertex="1">
          <mxGeometry x="510" y="330" width="310" height="80" as="geometry" />
        </mxCell>
        <mxCell id="jN14fflJWIRep8Q9NHBz-4" value="" style="endArrow=classic;html=1;rounded=0;exitX=0.898;exitY=0.222;exitDx=0;exitDy=0;exitPerimeter=0;entryX=0;entryY=0.5;entryDx=0;entryDy=0;" parent="1" source="jN14fflJWIRep8Q9NHBz-1" target="jN14fflJWIRep8Q9NHBz-2" edge="1">
          <mxGeometry width="50" height="50" relative="1" as="geometry">
            <mxPoint x="400" y="340" as="sourcePoint" />
            <mxPoint x="450" y="290" as="targetPoint" />
          </mxGeometry>
        </mxCell>
        <mxCell id="jN14fflJWIRep8Q9NHBz-5" value="" style="endArrow=classic;html=1;rounded=0;entryX=0;entryY=0.5;entryDx=0;entryDy=0;exitX=0.93;exitY=0.75;exitDx=0;exitDy=0;exitPerimeter=0;" parent="1" source="jN14fflJWIRep8Q9NHBz-1" target="jN14fflJWIRep8Q9NHBz-3" edge="1">
          <mxGeometry width="50" height="50" relative="1" as="geometry">
            <mxPoint x="400" y="340" as="sourcePoint" />
            <mxPoint x="450" y="290" as="targetPoint" />
          </mxGeometry>
        </mxCell>
      </root>
    </mxGraphModel>
  </diagram>
</mxfile>
